<svg width="64" height="64" viewBox="0 0 64 64" fill="none" xmlns="http://www.w3.org/2000/svg">
  <rect width="64" height="64" rx="14" fill="#071011"/>
  <rect x="7" y="7" width="50" height="50" rx="10" fill="#0D191C" stroke="#33D8FF" stroke-opacity="0.72" stroke-width="2"/>
  <path d="M12 20H52" stroke="#D6FCFF" stroke-opacity="0.16"/>
  <path d="M20 12V52" stroke="#D6FCFF" stroke-opacity="0.12"/>
  <path d="M32 12V52" stroke="#D6FCFF" stroke-opacity="0.12"/>
  <path d="M44 12V52" stroke="#D6FCFF" stroke-opacity="0.12"/>
  <circle cx="49" cy="16" r="4" fill="#6DF2A8"/>
  <circle cx="49" cy="16" r="7" stroke="#6DF2A8" stroke-opacity="0.22" stroke-width="2"/>
  <path d="M18 43V23H27.2C31.8 23 34.8 25.55 34.8 29.45C34.8 32.1 33.45 34.15 31.1 35.15L35.4 43H30.35L26.55 35.9H22.65V43H18ZM22.65 32.1H26.75C28.9 32.1 30.05 31.15 30.05 29.55C30.05 27.95 28.9 27 26.75 27H22.65V32.1Z" fill="#F7FFFF"/>
  <path d="M36.6 43V23H41.25L46.25 31.45L51.25 23H55.9V43H51.35V30.95L47.7 37.15H44.8L41.15 30.95V43H36.6Z" fill="#8BE9FF"/>
  <path d="M14 50H31" stroke="#FFB86B" stroke-width="2.5" stroke-linecap="round"/>
</svg>
